<mxfile host="app.diagrams.net" modified="2022-06-08T13:53:02.989Z" agent="5.0 (Windows NT 10.0; Win64; x64) AppleWebKit/537.36 (KHTML, like Gecko) Chrome/102.0.5005.63 Safari/537.36" etag="SrId2fwpL7Ar0mT3tGRs" version="18.1.3" type="github">
  <diagram id="mB7NIjY41AJw3-a7w4q8" name="Page-1">
    <mxGraphModel dx="868" dy="442" grid="1" gridSize="10" guides="1" tooltips="1" connect="1" arrows="1" fold="1" page="1" pageScale="1" pageWidth="827" pageHeight="1169" math="0" shadow="0">
      <root>
        <mxCell id="0" />
        <mxCell id="1" parent="0" />
        <mxCell id="NaWRQC0jXDxwDUXHI0bC-27" value="" style="swimlane;fontStyle=0;childLayout=stackLayout;horizontal=1;startSize=20;fillColor=#ffffff;horizontalStack=0;resizeParent=1;resizeParentMax=0;resizeLast=0;collapsible=0;marginBottom=0;swimlaneFillColor=#ffffff;fontSize=20;" vertex="1" parent="1">
          <mxGeometry x="55" y="100" width="710" height="300" as="geometry" />
        </mxCell>
        <mxCell id="NaWRQC0jXDxwDUXHI0bC-12" style="edgeStyle=orthogonalEdgeStyle;rounded=0;orthogonalLoop=1;jettySize=auto;html=1;exitX=0;exitY=0;exitDx=0;exitDy=0;entryX=0;entryY=0.5;entryDx=0;entryDy=0;fontSize=8;" edge="1" parent="1" source="NaWRQC0jXDxwDUXHI0bC-2" target="NaWRQC0jXDxwDUXHI0bC-4">
          <mxGeometry relative="1" as="geometry">
            <Array as="points">
              <mxPoint x="335" y="266" />
              <mxPoint x="335" y="145" />
            </Array>
          </mxGeometry>
        </mxCell>
        <mxCell id="NaWRQC0jXDxwDUXHI0bC-14" style="edgeStyle=orthogonalEdgeStyle;rounded=0;orthogonalLoop=1;jettySize=auto;html=1;exitX=1;exitY=0.5;exitDx=0;exitDy=0;entryX=0;entryY=0.5;entryDx=0;entryDy=0;fontSize=8;" edge="1" parent="1" source="NaWRQC0jXDxwDUXHI0bC-2" target="NaWRQC0jXDxwDUXHI0bC-5">
          <mxGeometry relative="1" as="geometry" />
        </mxCell>
        <mxCell id="NaWRQC0jXDxwDUXHI0bC-16" style="edgeStyle=orthogonalEdgeStyle;rounded=0;orthogonalLoop=1;jettySize=auto;html=1;exitX=0;exitY=1;exitDx=0;exitDy=0;entryX=0.5;entryY=1;entryDx=0;entryDy=0;fontSize=8;" edge="1" parent="1" source="NaWRQC0jXDxwDUXHI0bC-2" target="NaWRQC0jXDxwDUXHI0bC-3">
          <mxGeometry relative="1" as="geometry">
            <Array as="points">
              <mxPoint x="130" y="344" />
            </Array>
          </mxGeometry>
        </mxCell>
        <mxCell id="NaWRQC0jXDxwDUXHI0bC-2" value="&lt;div style=&quot;&quot;&gt;&lt;span style=&quot;background-color: initial;&quot;&gt;&lt;font style=&quot;font-size: 8px;&quot;&gt;SISTEM POS KEDAI HASAN&lt;/font&gt;&lt;/span&gt;&lt;/div&gt;" style="shape=ellipse;html=1;dashed=0;whitespace=wrap;aspect=fixed;perimeter=ellipsePerimeter;align=center;" vertex="1" parent="1">
          <mxGeometry x="355" y="250" width="110" height="110" as="geometry" />
        </mxCell>
        <mxCell id="NaWRQC0jXDxwDUXHI0bC-15" style="edgeStyle=orthogonalEdgeStyle;rounded=0;orthogonalLoop=1;jettySize=auto;html=1;exitX=1;exitY=0.5;exitDx=0;exitDy=0;entryX=0;entryY=0.5;entryDx=0;entryDy=0;fontSize=8;" edge="1" parent="1" source="NaWRQC0jXDxwDUXHI0bC-3" target="NaWRQC0jXDxwDUXHI0bC-2">
          <mxGeometry relative="1" as="geometry" />
        </mxCell>
        <mxCell id="NaWRQC0jXDxwDUXHI0bC-3" value="Pegawai" style="html=1;dashed=0;whitespace=wrap;" vertex="1" parent="1">
          <mxGeometry x="80" y="280" width="100" height="50" as="geometry" />
        </mxCell>
        <mxCell id="NaWRQC0jXDxwDUXHI0bC-13" style="edgeStyle=orthogonalEdgeStyle;rounded=0;orthogonalLoop=1;jettySize=auto;html=1;exitX=0.5;exitY=1;exitDx=0;exitDy=0;entryX=0.5;entryY=0;entryDx=0;entryDy=0;fontSize=8;" edge="1" parent="1" source="NaWRQC0jXDxwDUXHI0bC-4" target="NaWRQC0jXDxwDUXHI0bC-2">
          <mxGeometry relative="1" as="geometry">
            <Array as="points" />
          </mxGeometry>
        </mxCell>
        <mxCell id="NaWRQC0jXDxwDUXHI0bC-4" value="Transaksi" style="html=1;dashed=0;whitespace=wrap;shape=partialRectangle;right=0;left=0;" vertex="1" parent="1">
          <mxGeometry x="360" y="130" width="100" height="30" as="geometry" />
        </mxCell>
        <mxCell id="NaWRQC0jXDxwDUXHI0bC-11" style="edgeStyle=orthogonalEdgeStyle;rounded=0;orthogonalLoop=1;jettySize=auto;html=1;exitX=0.5;exitY=1;exitDx=0;exitDy=0;entryX=1;entryY=1;entryDx=0;entryDy=0;fontSize=8;" edge="1" parent="1" source="NaWRQC0jXDxwDUXHI0bC-5" target="NaWRQC0jXDxwDUXHI0bC-2">
          <mxGeometry relative="1" as="geometry" />
        </mxCell>
        <mxCell id="NaWRQC0jXDxwDUXHI0bC-5" value="Pembeli" style="html=1;dashed=0;whitespace=wrap;shape=partialRectangle;right=0;left=0;" vertex="1" parent="1">
          <mxGeometry x="640" y="290" width="100" height="30" as="geometry" />
        </mxCell>
        <mxCell id="NaWRQC0jXDxwDUXHI0bC-17" value="&lt;div style=&quot;text-align: left;&quot;&gt;&lt;span style=&quot;font-size: 12px; background-color: initial;&quot;&gt;Input Data Transaksi&lt;/span&gt;&lt;/div&gt;&lt;font style=&quot;font-size: 12px;&quot;&gt;&lt;div style=&quot;text-align: left;&quot;&gt;&lt;span style=&quot;background-color: initial;&quot;&gt;Input Data Pembeli Baru&lt;/span&gt;&lt;/div&gt;&lt;/font&gt;" style="text;html=1;align=center;verticalAlign=middle;resizable=0;points=[];autosize=1;strokeColor=none;fillColor=none;fontSize=8;" vertex="1" parent="1">
          <mxGeometry x="180" y="275" width="150" height="30" as="geometry" />
        </mxCell>
        <mxCell id="NaWRQC0jXDxwDUXHI0bC-18" value="&lt;div style=&quot;&quot;&gt;&lt;span style=&quot;font-size: 12px; background-color: initial;&quot;&gt;Input Data Transaksi&lt;/span&gt;&lt;/div&gt;" style="text;html=1;align=left;verticalAlign=middle;resizable=0;points=[];autosize=1;strokeColor=none;fillColor=none;fontSize=8;" vertex="1" parent="1">
          <mxGeometry x="220" y="190" width="130" height="20" as="geometry" />
        </mxCell>
        <mxCell id="NaWRQC0jXDxwDUXHI0bC-19" value="&lt;div style=&quot;&quot;&gt;&lt;span style=&quot;font-size: 12px; background-color: initial;&quot;&gt;Input Data Pembeli Baru&lt;/span&gt;&lt;/div&gt;" style="text;html=1;align=left;verticalAlign=middle;resizable=0;points=[];autosize=1;strokeColor=none;fillColor=none;fontSize=8;" vertex="1" parent="1">
          <mxGeometry x="480" y="285" width="150" height="20" as="geometry" />
        </mxCell>
        <mxCell id="NaWRQC0jXDxwDUXHI0bC-20" value="&lt;div style=&quot;&quot;&gt;&lt;span style=&quot;font-size: 12px; background-color: initial;&quot;&gt;Output Data Transaksi&lt;/span&gt;&lt;/div&gt;" style="text;html=1;align=left;verticalAlign=middle;resizable=0;points=[];autosize=1;strokeColor=none;fillColor=none;fontSize=8;" vertex="1" parent="1">
          <mxGeometry x="410" y="190" width="130" height="20" as="geometry" />
        </mxCell>
        <mxCell id="NaWRQC0jXDxwDUXHI0bC-21" value="&lt;div style=&quot;&quot;&gt;&lt;span style=&quot;font-size: 12px; background-color: initial;&quot;&gt;Output Data Pembeli&lt;/span&gt;&lt;/div&gt;" style="text;html=1;align=left;verticalAlign=middle;resizable=0;points=[];autosize=1;strokeColor=none;fillColor=none;fontSize=8;" vertex="1" parent="1">
          <mxGeometry x="490" y="345" width="130" height="20" as="geometry" />
        </mxCell>
        <mxCell id="NaWRQC0jXDxwDUXHI0bC-22" value="&lt;div style=&quot;&quot;&gt;&lt;span style=&quot;font-size: 12px; background-color: initial;&quot;&gt;Output Data Transaksi&lt;/span&gt;&lt;/div&gt;&lt;div style=&quot;&quot;&gt;&lt;span style=&quot;font-size: 12px; background-color: initial;&quot;&gt;Output Data Pembeli&lt;/span&gt;&lt;/div&gt;" style="text;html=1;align=left;verticalAlign=middle;resizable=0;points=[];autosize=1;strokeColor=none;fillColor=none;fontSize=8;" vertex="1" parent="1">
          <mxGeometry x="180" y="345" width="130" height="30" as="geometry" />
        </mxCell>
      </root>
    </mxGraphModel>
  </diagram>
</mxfile>
